# xmcd
#
# Track frame offsets:
#	150
#	12535
#	25006
#	34888
#	45240
#	57946
#	71122
#	85239
#	93592
#	107944
#	120178
#	131472
#	146765
#	159941
#	168412
#	178764
#	192881
#	203234
#	213587
#	225821
#
# Disc length: 3188 seconds
#
# Revision: 0
# Processed by: cddbd v1.5.2PL0 Copyright (c) Steve Scherf et al.
# Submitted via: EZCDAudioConverter 2.3.5.1
#
DISCID=0d0c7214
DTITLE=금잔디 - 트롯트 금잔디 7
DYEAR=2014
DGENRE=Trot
TTITLE0=어쩔사(어쩔수없는사랑)
TTITLE1=안동역에서
TTITLE2=사랑도 모르면서
TTITLE3=청춘아
TTITLE4=이력서
TTITLE5=몰랐네
TTITLE6=미련의 부르스
TTITLE7=안녕하세요
TTITLE8=정답
TTITLE9=청풍명월
TTITLE10=웃으며 삽시다
TTITLE11=순애보
TTITLE12=빈깡통
TTITLE13=쿵짝인생
TTITLE14=당신 믿어요
TTITLE15=내장산
TTITLE16=천년화
TTITLE17=신데렐라
TTITLE18=팔자
TTITLE19=인생
EXTD=
EXTT0=
EXTT1=
EXTT2=
EXTT3=
EXTT4=
EXTT5=
EXTT6=
EXTT7=
EXTT8=
EXTT9=
EXTT10=
EXTT11=
EXTT12=
EXTT13=
EXTT14=
EXTT15=
EXTT16=
EXTT17=
EXTT18=
EXTT19=
PLAYORDER=
